<svg width="399" height="76" viewBox="0 0 399 76" fill="none" xmlns="http://www.w3.org/2000/svg">
<path id="SleepyFace" d="M2.774 50.378C1.49133 48.7993 0.85 47.3933 0.85 46.16C0.85 44.8773 1.91067 43.2 4.032 41.128C5.26533 39.944 6.57267 39.352 7.954 39.352C9.33533 39.352 11.2593 40.5853 13.726 43.052C14.4167 43.8907 15.4033 44.7047 16.686 45.494C17.9687 46.234 19.1527 46.604 20.238 46.604C24.826 46.604 27.12 44.7293 27.12 40.98C27.12 39.8453 26.4787 38.908 25.196 38.168C23.9627 37.3787 22.4087 36.8113 20.534 36.466C18.6593 36.1207 16.6367 35.578 14.466 34.838C12.2953 34.0487 10.2727 33.136 8.398 32.1C6.52333 31.064 4.94467 29.436 3.662 27.216C2.42867 24.9467 1.812 22.2333 1.812 19.076C1.812 14.7347 3.41533 10.9607 6.622 7.754C9.878 4.498 14.2933 2.87 19.868 2.87C22.828 2.87 25.5167 3.26466 27.934 4.054C30.4007 4.794 32.1027 5.55866 33.04 6.348L34.89 7.754C36.4193 9.18466 37.184 10.3933 37.184 11.38C37.184 12.3667 36.592 13.7233 35.408 15.45C33.7307 17.9167 32.004 19.15 30.228 19.15C29.192 19.15 27.9093 18.6567 26.38 17.67C26.232 17.5713 25.936 17.3247 25.492 16.93C25.0973 16.5353 24.7273 16.2147 24.382 15.968C23.346 15.3267 22.014 15.006 20.386 15.006C18.8073 15.006 17.4753 15.4007 16.39 16.19C15.354 16.93 14.836 17.9907 14.836 19.372C14.836 20.704 15.4527 21.7893 16.686 22.628C17.9687 23.4667 19.5473 24.034 21.422 24.33C23.2967 24.626 25.344 25.0947 27.564 25.736C29.784 26.328 31.8313 27.068 33.706 27.956C35.5807 28.844 37.1347 30.398 38.368 32.618C39.6507 34.7887 40.292 37.4773 40.292 40.684C40.292 43.8907 39.6507 46.7273 38.368 49.194C37.0853 51.6113 35.408 53.486 33.336 54.818C29.34 57.4327 25.0727 58.74 20.534 58.74C18.2153 58.74 16.02 58.4687 13.948 57.926C11.876 57.334 10.1987 56.6187 8.916 55.78C6.30133 54.2013 4.476 52.672 3.44 51.192L2.774 50.378ZM45.1026 7.162C45.1026 6.02733 45.1272 5.18866 45.1766 4.646C45.2752 4.054 45.4972 3.388 45.8426 2.648C46.5332 1.316 48.4572 0.649997 51.6146 0.649997C54.6239 0.649997 56.4986 1.316 57.2386 2.648C57.6332 3.388 57.8552 4.054 57.9046 4.646C58.0032 5.238 58.0526 6.10133 58.0526 7.236V41.498C58.0526 43.274 58.2006 44.4087 58.4966 44.902C58.7926 45.346 59.4339 45.568 60.4206 45.568C61.4566 45.568 62.1472 45.6173 62.4926 45.716C62.8379 45.7653 63.2572 45.9627 63.7506 46.308C64.7372 46.9493 65.2306 48.7007 65.2306 51.562C65.2306 54.67 64.7372 56.5693 63.7506 57.26C62.4679 58.148 59.4092 58.296 54.5746 57.704C50.7759 57.2107 48.3092 55.9527 47.1746 53.93C45.7932 51.5127 45.1026 47.6647 45.1026 42.386V7.162ZM106.181 33.876C106.181 36.8853 105.416 39.13 103.887 40.61C102.407 42.0407 100.754 42.756 98.9289 42.756H81.3909C81.3909 44.1373 82.2049 45.2967 83.8329 46.234C85.4609 47.1713 87.0889 47.64 88.7169 47.64C91.5782 47.64 93.8229 47.344 95.4509 46.752L96.2649 46.456C97.4489 45.9133 98.4356 45.642 99.2249 45.642C100.804 45.642 102.16 46.752 103.295 48.972C103.936 50.304 104.257 51.4387 104.257 52.376C104.257 56.7667 99.0029 58.962 88.4949 58.962C84.8442 58.962 81.5882 58.3453 78.7269 57.112C75.9149 55.8293 73.7196 54.152 72.1409 52.08C69.0329 48.084 67.4789 43.6193 67.4789 38.686C67.4789 32.47 69.4769 27.512 73.4729 23.812C77.5182 20.0627 82.5502 18.188 88.5689 18.188C95.4262 18.188 100.458 20.6053 103.665 25.44C105.342 28.0053 106.181 30.8173 106.181 33.876ZM90.5669 36.022C92.4416 36.022 93.3789 35.2327 93.3789 33.654C93.3789 32.5193 92.9349 31.6067 92.0469 30.916C91.2082 30.2253 89.9749 29.88 88.3469 29.88C86.7682 29.88 85.1896 30.546 83.6109 31.878C82.0322 33.1607 81.2429 34.542 81.2429 36.022H90.5669ZM148.601 33.876C148.601 36.8853 147.836 39.13 146.307 40.61C144.827 42.0407 143.174 42.756 141.349 42.756H123.811C123.811 44.1373 124.625 45.2967 126.253 46.234C127.881 47.1713 129.509 47.64 131.137 47.64C133.998 47.64 136.243 47.344 137.871 46.752L138.685 46.456C139.869 45.9133 140.855 45.642 141.645 45.642C143.223 45.642 144.58 46.752 145.715 48.972C146.356 50.304 146.677 51.4387 146.677 52.376C146.677 56.7667 141.423 58.962 130.915 58.962C127.264 58.962 124.008 58.3453 121.147 57.112C118.335 55.8293 116.139 54.152 114.561 52.08C111.453 48.084 109.899 43.6193 109.899 38.686C109.899 32.47 111.897 27.512 115.893 23.812C119.938 20.0627 124.97 18.188 130.989 18.188C137.846 18.188 142.878 20.6053 146.085 25.44C147.762 28.0053 148.601 30.8173 148.601 33.876ZM132.987 36.022C134.861 36.022 135.799 35.2327 135.799 33.654C135.799 32.5193 135.355 31.6067 134.467 30.916C133.628 30.2253 132.395 29.88 130.767 29.88C129.188 29.88 127.609 30.546 126.031 31.878C124.452 33.1607 123.663 34.542 123.663 36.022H132.987ZM153.429 68.582V25.366C153.429 24.2313 153.453 23.3927 153.503 22.85C153.601 22.3073 153.823 21.6907 154.169 21C154.859 19.668 156.512 19.002 159.127 19.002C161.741 19.002 163.493 19.3473 164.381 20.038C165.318 20.6793 165.861 21.6413 166.009 22.924C167.883 20.3587 170.819 19.076 174.815 19.076C178.86 19.076 182.683 20.9753 186.285 24.774C189.886 28.5727 191.687 32.988 191.687 38.02C191.687 43.052 189.886 47.4673 186.285 51.266C182.733 55.0647 178.934 56.964 174.889 56.964C170.843 56.964 167.908 55.8293 166.083 53.56V68.508C166.083 69.6427 166.033 70.4813 165.935 71.024C165.885 71.5667 165.663 72.1833 165.269 72.874C164.923 73.614 164.307 74.132 163.419 74.428C162.531 74.724 161.322 74.872 159.793 74.872C158.263 74.872 157.03 74.724 156.093 74.428C155.205 74.132 154.563 73.6387 154.169 72.948C153.823 72.2573 153.601 71.6407 153.503 71.098C153.453 70.5553 153.429 69.7167 153.429 68.582ZM168.081 33.728C166.946 35.06 166.379 36.5153 166.379 38.094C166.379 39.6727 166.946 41.128 168.081 42.46C169.265 43.7427 170.745 44.384 172.521 44.384C174.346 44.384 175.875 43.7427 177.109 42.46C178.391 41.1773 179.033 39.722 179.033 38.094C179.033 36.466 178.441 35.0107 177.257 33.728C176.073 32.396 174.519 31.73 172.595 31.73C170.72 31.73 169.215 32.396 168.081 33.728ZM230.519 19.446C233.429 20.7287 234.885 22.2827 234.885 24.108C234.885 24.996 234.687 25.8347 234.293 26.624C233.898 27.4133 233.701 27.8327 233.701 27.882L214.313 71.246C213.918 72.1833 213.573 72.8987 213.277 73.392C213.03 73.8853 212.611 74.354 212.019 74.798C211.427 75.242 210.687 75.464 209.799 75.464C208.911 75.464 207.603 75.094 205.877 74.354C202.966 73.0713 201.511 71.542 201.511 69.766C201.511 68.582 203.879 62.9333 208.615 52.82L193.889 28.03C192.902 26.402 192.409 25.1933 192.409 24.404C192.409 22.8253 193.741 21.2467 196.405 19.668C198.082 18.6813 199.389 18.188 200.327 18.188C201.264 18.188 202.029 18.3853 202.621 18.78C203.213 19.1747 203.632 19.594 203.879 20.038C204.175 20.4327 205.531 22.7267 207.949 26.92C210.415 31.064 212.759 34.9367 214.979 38.538C215.225 37.7487 216.557 34.7147 218.975 29.436C221.392 24.108 222.675 21.2713 222.823 20.926C223.02 20.5807 223.316 20.1613 223.711 19.668C224.352 18.8293 225.24 18.41 226.375 18.41C227.559 18.41 228.94 18.7553 230.519 19.446ZM274.809 3.758C275.944 3.758 276.782 3.80733 277.325 3.906C277.917 3.95533 278.558 4.17733 279.249 4.572C279.989 4.96666 280.507 5.63266 280.803 6.57C281.099 7.50733 281.247 8.76533 281.247 10.344C281.247 11.9227 281.099 13.1807 280.803 14.118C280.507 15.0553 279.989 15.7213 279.249 16.116C278.509 16.4613 277.843 16.6833 277.251 16.782C276.708 16.8313 275.845 16.856 274.661 16.856H252.017V24.33H266.595C267.779 24.33 268.642 24.3793 269.185 24.478C269.777 24.5273 270.443 24.7493 271.183 25.144C272.466 25.884 273.107 27.8327 273.107 30.99C273.107 34.4433 272.17 36.4907 270.295 37.132C269.506 37.3787 268.248 37.502 266.521 37.502H252.017V51.488C252.017 52.672 251.968 53.5353 251.869 54.078C251.82 54.6207 251.598 55.262 251.203 56.002C250.512 57.334 248.588 58 245.431 58C241.978 58 239.955 57.0627 239.363 55.188C239.067 54.3987 238.919 53.1407 238.919 51.414V10.27C238.919 7.754 239.388 6.052 240.325 5.164C241.262 4.22666 243.038 3.758 245.653 3.758H274.809ZM304.696 23.146C304.992 20.3833 306.94 19.002 310.542 19.002C312.466 19.002 313.896 19.15 314.834 19.446C315.771 19.742 316.412 20.26 316.758 21C317.152 21.74 317.374 22.406 317.424 22.998C317.522 23.5407 317.572 24.3793 317.572 25.514V51.414C317.572 52.5487 317.522 53.412 317.424 54.004C317.374 54.5467 317.177 55.188 316.832 55.928C316.141 57.2107 314.439 57.852 311.726 57.852C309.062 57.852 307.261 57.5313 306.324 56.89C305.436 56.1993 304.918 55.2127 304.77 53.93C302.944 56.5447 299.886 57.852 295.594 57.852C291.351 57.852 287.404 55.9033 283.754 52.006C280.103 48.1087 278.278 43.5947 278.278 38.464C278.278 33.284 280.103 28.77 283.754 24.922C287.454 21.0247 291.499 19.076 295.89 19.076C297.567 19.076 299.096 19.372 300.478 19.964C301.859 20.556 302.821 21.1233 303.364 21.666C303.906 22.1593 304.35 22.6527 304.696 23.146ZM291.228 38.538C291.228 40.166 291.869 41.646 293.152 42.978C294.434 44.2607 295.988 44.902 297.814 44.902C299.639 44.902 301.144 44.236 302.328 42.904C303.561 41.572 304.178 40.1167 304.178 38.538C304.178 36.91 303.586 35.4053 302.402 34.024C301.267 32.6427 299.713 31.952 297.74 31.952C295.816 31.952 294.237 32.6427 293.004 34.024C291.82 35.4053 291.228 36.91 291.228 38.538ZM335.68 38.538C335.68 40.61 336.37 42.238 337.752 43.422C339.133 44.5567 340.588 45.124 342.118 45.124C343.696 45.124 345.152 44.68 346.484 43.792C347.865 42.8547 348.975 42.386 349.814 42.386C351.294 42.386 353.094 43.6933 355.216 46.308C356.35 47.7387 356.918 49.0213 356.918 50.156C356.918 52.0307 355.561 53.782 352.848 55.41C350.036 57.3833 346.582 58.37 342.488 58.37C337.9 58.37 333.484 56.7173 329.242 53.412C327.219 51.8333 325.566 49.7367 324.284 47.122C323.001 44.458 322.36 41.5473 322.36 38.39C322.36 35.1833 323.001 32.2973 324.284 29.732C325.566 27.1173 327.219 25.0207 329.242 23.442C333.336 20.186 337.702 18.558 342.34 18.558C344.214 18.558 346.04 18.8293 347.816 19.372C349.592 19.8653 350.899 20.3587 351.738 20.852L352.922 21.592C353.81 22.184 354.5 22.6527 354.994 22.998C356.276 23.9847 356.918 25.1193 356.918 26.402C356.918 27.6353 356.4 29.0413 355.364 30.62C353.588 33.3333 351.886 34.69 350.258 34.69C349.32 34.69 347.988 34.1473 346.262 33.062C345.374 32.2233 344.091 31.804 342.414 31.804C340.786 31.804 339.256 32.396 337.826 33.58C336.395 34.764 335.68 36.4167 335.68 38.538ZM398.206 33.876C398.206 36.8853 397.442 39.13 395.912 40.61C394.432 42.0407 392.78 42.756 390.954 42.756H373.416C373.416 44.1373 374.23 45.2967 375.858 46.234C377.486 47.1713 379.114 47.64 380.742 47.64C383.604 47.64 385.848 47.344 387.476 46.752L388.29 46.456C389.474 45.9133 390.461 45.642 391.25 45.642C392.829 45.642 394.186 46.752 395.32 48.972C395.962 50.304 396.282 51.4387 396.282 52.376C396.282 56.7667 391.028 58.962 380.52 58.962C376.87 58.962 373.614 58.3453 370.752 57.112C367.94 55.8293 365.745 54.152 364.166 52.08C361.058 48.084 359.504 43.6193 359.504 38.686C359.504 32.47 361.502 27.512 365.498 23.812C369.544 20.0627 374.576 18.188 380.594 18.188C387.452 18.188 392.484 20.6053 395.69 25.44C397.368 28.0053 398.206 30.8173 398.206 33.876ZM382.592 36.022C384.467 36.022 385.404 35.2327 385.404 33.654C385.404 32.5193 384.96 31.6067 384.072 30.916C383.234 30.2253 382 29.88 380.372 29.88C378.794 29.88 377.215 30.546 375.636 31.878C374.058 33.1607 373.268 34.542 373.268 36.022H382.592Z" fill="black"/>
</svg>
